<svg xmlns="http://www.w3.org/2000/svg" viewBox="0 0 64 64">
  <defs>
    <linearGradient id="body" x1="0.13" y1="0.05" x2="0.9" y2="0.98">
      <stop offset="0" stop-color="#9aa0ff"/>
      <stop offset="0.5" stop-color="#f490ac"/>
      <stop offset="1" stop-color="#ffc69a"/>
    </linearGradient>
    <radialGradient id="round" cx="0.42" cy="0.38" r="0.74">
      <stop offset="0.65" stop-color="#5a4a7a" stop-opacity="0"/>
      <stop offset="1" stop-color="#5a4a7a" stop-opacity="0.17"/>
    </radialGradient>
    <radialGradient id="sheen" cx="0.32" cy="0.24" r="0.5">
      <stop offset="0" stop-color="#ffffff" stop-opacity="0.68"/>
      <stop offset="0.6" stop-color="#ffffff" stop-opacity="0.10"/>
      <stop offset="1" stop-color="#ffffff" stop-opacity="0"/>
    </radialGradient>
    <radialGradient id="rimglow" cx="0.74" cy="0.82" r="0.45">
      <stop offset="0" stop-color="#fff2e6" stop-opacity="0.45"/>
      <stop offset="1" stop-color="#fff2e6" stop-opacity="0"/>
    </radialGradient>
    <mask id="rimmask">
      <rect width="64" height="64" fill="black"/>
      <circle cx="32" cy="32" r="30" fill="white"/>
      <circle cx="29.8" cy="29.6" r="28.8" fill="black"/>
    </mask>
    <filter id="soft"><feGaussianBlur stdDeviation="0.9"/></filter>
  </defs>
  <circle cx="32" cy="32" r="30" fill="url(#body)"/>
  <circle cx="32" cy="32" r="30" fill="url(#round)"/>
  <g transform="translate(19.98,47.50) scale(0.02107,-0.02107)" fill="#ffffff"><path d="M608 -21Q515 -21 456.0 5.5Q397 32 364.0 59.0Q331 86 318 86Q310 86 295.5 69.0Q281 52 263.0 30.0Q245 8 229.0 -8.5Q213 -25 203 -25Q198 -25 191.5 -20.5Q185 -16 184 -8L108 423Q108 430 108.0 433.5Q108 437 111 437Q113 439 116.5 437.0Q120 435 122 431Q205 260 283.5 166.0Q362 72 437.5 35.5Q513 -1 587 -1Q695 -1 759.5 58.0Q824 117 824 231Q824 302 795.0 361.0Q766 420 696.5 470.5Q627 521 507 563Q350 620 255.5 687.5Q161 755 119.0 836.5Q77 918 77 1020Q77 1138 137.0 1228.5Q197 1319 302.5 1369.5Q408 1420 543 1420Q628 1420 682.5 1399.5Q737 1379 769.0 1358.5Q801 1338 816 1338Q829 1338 855.5 1359.5Q882 1381 907.0 1402.5Q932 1424 942 1424Q947 1424 951.0 1421.5Q955 1419 957 1411L1063 982Q1064 976 1064.0 972.5Q1064 969 1061 968Q1059 967 1055.5 969.0Q1052 971 1049 974Q958 1142 878.0 1235.0Q798 1328 720.0 1364.5Q642 1401 560 1401Q455 1401 388.0 1334.0Q321 1267 321 1148Q321 1075 348.5 1014.0Q376 953 442.5 902.5Q509 852 624 810Q789 750 883.5 683.0Q978 616 1018.0 538.0Q1058 460 1058 366Q1058 258 1005.0 170.5Q952 83 851.0 31.0Q750 -21 608 -21Z"/></g>
  <g mask="url(#rimmask)" filter="url(#soft)"><circle cx="32" cy="32" r="30" fill="url(#rimglow)"/></g>
  <circle cx="32" cy="32" r="30" fill="url(#sheen)"/>
  <ellipse cx="22.5" cy="18" rx="8.5" ry="5.5" fill="#ffffff" opacity="0.42" transform="rotate(-30 22.5 18)"/>
</svg>
